<svg width="36" height="24" viewBox="0 0 36 24" fill="none" xmlns="http://www.w3.org/2000/svg">
<path d="M31.3849 0H4.36702C1.95915 0 0 1.91538 0 4.26945V19.4597C0 21.8138 1.95915 23.7292 4.36702 23.7292H31.3849C33.7928 23.7292 35.7519 21.8138 35.7519 19.4597V4.26991C35.7524 1.91538 33.7933 0 31.3849 0ZM29.251 2.78533L17.876 9.95013L6.50091 2.78533H29.251ZM31.3849 20.9443H4.36702C3.52989 20.9443 2.84899 20.2781 2.84899 19.4602V4.34883L16.9971 13.2433C17.016 13.2549 17.0365 13.2628 17.0559 13.2735C17.0764 13.2846 17.0972 13.2953 17.1181 13.3055C17.2278 13.3608 17.3408 13.4053 17.4562 13.4346C17.4681 13.4378 17.48 13.4392 17.4918 13.442C17.6186 13.4713 17.7468 13.4894 17.875 13.4894H17.876C17.8769 13.4894 17.8779 13.4894 17.8779 13.4894C18.0061 13.4894 18.1343 13.4717 18.2611 13.442C18.2729 13.4392 18.2848 13.4378 18.2967 13.4346C18.4121 13.4053 18.5246 13.3608 18.6347 13.3055C18.6556 13.2953 18.6765 13.2846 18.697 13.2735C18.7164 13.2628 18.7368 13.2549 18.7558 13.2433L32.9039 4.34883V19.4597C32.9034 20.2781 32.222 20.9443 31.3849 20.9443Z" fill="white"/>
</svg>
