<svg width="50" height="49" viewBox="0 0 50 49" fill="none" xmlns="http://www.w3.org/2000/svg">
<g filter="url(#filter0_d_9_127)">
<rect x="4.09089" y="0.36042" width="41.8095" height="41.8096" rx="4.03958" stroke="white" stroke-width="0.72084" shape-rendering="crispEdges"/>
</g>
<mask id="path-2-outside-1_9_127" maskUnits="userSpaceOnUse" x="13.542" y="9.2085" width="23" height="22" fill="black">
<rect fill="white" x="13.542" y="9.2085" width="23" height="22"/>
<path d="M15.9345 29.2085V16.6266H19.424V29.2085H15.9345ZM17.6875 15.0047C17.1687 15.0047 16.7236 14.8327 16.3523 14.4886C15.9864 14.1391 15.8035 13.7214 15.8035 13.2353C15.8035 12.7548 15.9864 12.3425 16.3523 11.9984C16.7236 11.649 17.1687 11.4742 17.6875 11.4742C18.2063 11.4742 18.6486 11.649 19.0145 11.9984C19.3858 12.3425 19.5715 12.7548 19.5715 13.2353C19.5715 13.7214 19.3858 14.1391 19.0145 14.4886C18.6486 14.8327 18.2063 15.0047 17.6875 15.0047ZM26.6315 21.9346V29.2085H23.142V16.6266H26.4677V18.8464H26.6152C26.8937 18.1147 27.3606 17.5358 28.0159 17.1099C28.6712 16.6784 29.4657 16.4627 30.3996 16.4627C31.2733 16.4627 32.0351 16.6539 32.685 17.0361C33.3348 17.4184 33.8399 17.9645 34.2004 18.6744C34.5608 19.3789 34.741 20.2198 34.741 21.1973V29.2085H31.2515V21.8199C31.2569 21.0499 31.0603 20.4492 30.6617 20.0178C30.263 19.5809 29.7142 19.3625 29.0152 19.3625C28.5456 19.3625 28.1306 19.4635 27.7701 19.6656C27.4152 19.8676 27.1367 20.1625 26.9346 20.5502C26.738 20.9325 26.637 21.3939 26.6315 21.9346Z"/>
</mask>
<path d="M15.9345 29.2085H14.4928V30.6502H15.9345V29.2085ZM15.9345 16.6266V15.1849H14.4928V16.6266H15.9345ZM19.424 16.6266H20.8657V15.1849H19.424V16.6266ZM19.424 29.2085V30.6502H20.8657V29.2085H19.424ZM16.3523 14.4886L15.3565 15.5311L15.3644 15.5387L15.3725 15.5462L16.3523 14.4886ZM16.3523 11.9984L17.3399 13.0487L17.3404 13.0483L16.3523 11.9984ZM19.0145 11.9984L18.0187 13.0409L18.0266 13.0485L18.0347 13.056L19.0145 11.9984ZM19.0145 14.4886L20.0021 15.5389L20.0026 15.5385L19.0145 14.4886ZM17.3762 29.2085V16.6266H14.4928V29.2085H17.3762ZM15.9345 18.0682H19.424V15.1849H15.9345V18.0682ZM17.9824 16.6266V29.2085H20.8657V16.6266H17.9824ZM19.424 27.7668H15.9345V30.6502H19.424V27.7668ZM17.6875 13.563C17.522 13.563 17.4297 13.5215 17.3321 13.4311L15.3725 15.5462C16.0176 16.1439 16.8153 16.4464 17.6875 16.4464V13.563ZM17.3481 13.4461C17.2538 13.3561 17.2451 13.3097 17.2451 13.2353H14.3618C14.3618 14.133 14.719 14.9222 15.3565 15.5311L17.3481 13.4461ZM17.2451 13.2353C17.2451 13.1831 17.2539 13.1606 17.2584 13.1504C17.2636 13.1388 17.281 13.1041 17.3399 13.0487L15.3647 10.9482C14.7237 11.5508 14.3618 12.3373 14.3618 13.2353H17.2451ZM17.3404 13.0483C17.4392 12.9553 17.5289 12.9159 17.6875 12.9159V10.0325C16.8085 10.0325 16.0081 10.3426 15.3642 10.9486L17.3404 13.0483ZM17.6875 12.9159C17.8458 12.9159 17.9285 12.9548 18.0187 13.0409L20.0103 10.956C19.3687 10.3431 18.5668 10.0325 17.6875 10.0325V12.9159ZM18.0347 13.056C18.0956 13.1125 18.1131 13.1475 18.1177 13.1577C18.1215 13.1662 18.1298 13.1861 18.1298 13.2353H21.0132C21.0132 12.3298 20.6424 11.5414 19.9943 10.9409L18.0347 13.056ZM18.1298 13.2353C18.1298 13.3024 18.1243 13.3467 18.0264 13.4388L20.0026 15.5385C20.6473 14.9316 21.0132 14.1403 21.0132 13.2353H18.1298ZM18.0269 13.4383C17.938 13.5219 17.8526 13.563 17.6875 13.563V16.4464C18.5599 16.4464 19.3592 16.1434 20.0021 15.5389L18.0269 13.4383ZM26.6315 21.9346L25.1899 21.92L25.1899 21.9273V21.9346H26.6315ZM26.6315 29.2085V30.6502H28.0732V29.2085H26.6315ZM23.142 29.2085H21.7003V30.6502H23.142V29.2085ZM23.142 16.6266V15.1849H21.7003V16.6266H23.142ZM26.4677 16.6266H27.9094V15.1849H26.4677V16.6266ZM26.4677 18.8464H25.026V20.2881H26.4677V18.8464ZM26.6152 18.8464V20.2881H27.609L27.9625 19.3592L26.6152 18.8464ZM28.0159 17.1099L28.8016 18.3186L28.8086 18.314L28.0159 17.1099ZM32.685 17.0361L33.4159 15.7935L32.685 17.0361ZM34.2004 18.6744L32.9149 19.327L32.9169 19.3311L34.2004 18.6744ZM34.741 29.2085V30.6502H36.1827V29.2085H34.741ZM31.2515 29.2085H29.8098V30.6502H31.2515V29.2085ZM31.2515 21.8199L29.8098 21.8097V21.8199H31.2515ZM30.6617 20.0178L29.5967 20.9896L29.6029 20.9962L30.6617 20.0178ZM27.7701 19.6656L27.0651 18.408L27.0569 18.4126L27.7701 19.6656ZM26.9346 20.5502L25.6561 19.884L25.6526 19.8909L26.9346 20.5502ZM25.1899 21.9346V29.2085H28.0732V21.9346H25.1899ZM26.6315 27.7668H23.142V30.6502H26.6315V27.7668ZM24.5837 29.2085V16.6266H21.7003V29.2085H24.5837ZM23.142 18.0682H26.4677V15.1849H23.142V18.0682ZM25.026 16.6266V18.8464H27.9094V16.6266H25.026ZM26.4677 20.2881H26.6152V17.4047H26.4677V20.2881ZM27.9625 19.3592C28.1325 18.9126 28.403 18.5777 28.8016 18.3186L27.2302 15.9011C26.3181 16.4939 25.6548 17.3167 25.2678 18.3336L27.9625 19.3592ZM28.8086 18.314C29.1869 18.065 29.6931 17.9044 30.3996 17.9044V15.0211C29.2384 15.0211 28.1555 15.2919 27.2231 15.9057L28.8086 18.314ZM30.3996 17.9044C31.0577 17.9044 31.5588 18.0463 31.954 18.2788L33.4159 15.7935C32.5114 15.2614 31.489 15.0211 30.3996 15.0211V17.9044ZM31.954 18.2788C32.3529 18.5134 32.6718 18.8483 32.9149 19.327L35.4859 18.0218C35.0081 17.0807 34.3167 16.3234 33.4159 15.7935L31.954 18.2788ZM32.9169 19.3311C33.1517 19.79 33.2993 20.3954 33.2993 21.1973H36.1827C36.1827 20.0443 35.9699 18.9678 35.4838 18.0178L32.9169 19.3311ZM33.2993 21.1973V29.2085H36.1827V21.1973H33.2993ZM34.741 27.7668H31.2515V30.6502H34.741V27.7668ZM32.6931 29.2085V21.8199H29.8098V29.2085H32.6931ZM32.6931 21.8301C32.7003 20.8111 32.4372 19.815 31.7205 19.0394L29.6029 20.9962C29.6835 21.0834 29.8135 21.2887 29.8098 21.8097L32.6931 21.8301ZM31.7266 19.046C31.0049 18.2551 30.039 17.9208 29.0152 17.9208V20.8042C29.3894 20.8042 29.5211 20.9067 29.5967 20.9896L31.7266 19.046ZM29.0152 17.9208C28.3329 17.9208 27.6689 18.0695 27.0651 18.408L28.4751 20.9231C28.5922 20.8575 28.7582 20.8042 29.0152 20.8042V17.9208ZM27.0569 18.4126C26.4439 18.7616 25.9769 19.2685 25.6561 19.884L28.2131 21.2165C28.2965 21.0565 28.3864 20.9736 28.4833 20.9185L27.0569 18.4126ZM25.6526 19.8909C25.3303 20.5175 25.1971 21.2114 25.1899 21.92L28.0731 21.9491C28.0769 21.5765 28.1458 21.3475 28.2167 21.2096L25.6526 19.8909Z" fill="white" mask="url(#path-2-outside-1_9_127)"/>
<defs>
<filter id="filter0_d_9_127" x="0.84711" y="0" width="48.297" height="48.2972" filterUnits="userSpaceOnUse" color-interpolation-filters="sRGB">
<feFlood flood-opacity="0" result="BackgroundImageFix"/>
<feColorMatrix in="SourceAlpha" type="matrix" values="0 0 0 0 0 0 0 0 0 0 0 0 0 0 0 0 0 0 127 0" result="hardAlpha"/>
<feOffset dy="2.88336"/>
<feGaussianBlur stdDeviation="1.44168"/>
<feComposite in2="hardAlpha" operator="out"/>
<feColorMatrix type="matrix" values="0 0 0 0 0 0 0 0 0 0 0 0 0 0 0 0 0 0 0.25 0"/>
<feBlend mode="normal" in2="BackgroundImageFix" result="effect1_dropShadow_9_127"/>
<feBlend mode="normal" in="SourceGraphic" in2="effect1_dropShadow_9_127" result="shape"/>
</filter>
</defs>
</svg>
