<svg width="20" height="25" viewBox="0 0 20 25" fill="none" xmlns="http://www.w3.org/2000/svg">
<path d="M9.57387 0C4.28613 0 0 4.04852 0 9.03848C0 15.7429 5.88027 21.9961 8.42488 24.3873C9.06555 24.9919 10.1002 24.9979 10.7529 24.4054C13.3126 22.0834 19.1507 16.0226 19.1507 9.03848C19.1477 4.04852 14.8616 0 9.57387 0ZM9.57387 12.0643C7.86242 12.0643 6.47281 10.6747 6.47281 8.96328C6.47281 7.25184 7.86242 5.86223 9.57387 5.86223C11.2853 5.86223 12.6749 7.25184 12.6749 8.96328C12.6749 10.6747 11.2853 12.0643 9.57387 12.0643Z" fill="white"/>
</svg>
