<svg width="23" height="23" viewBox="0 0 23 23" fill="none" xmlns="http://www.w3.org/2000/svg">
<path d="M21.9521 17.8822C22.2138 18.1448 22.41 18.4653 22.5247 18.8179C22.6395 19.1704 22.6697 19.545 22.6127 19.9113C22.5558 20.2777 22.4134 20.6254 22.1971 20.9265C21.9807 21.2276 21.6965 21.4735 21.3674 21.6443C19.4871 22.6493 17.2962 22.9061 15.2343 22.3633C9.762 20.9857 1.89624 13.1199 0.518644 7.64762C-0.0241928 5.58576 0.232662 3.39489 1.23768 1.5145C1.40848 1.18545 1.65437 0.90124 1.95544 0.684894C2.2565 0.468548 2.60429 0.326145 2.97063 0.269214C3.33697 0.212283 3.71157 0.242426 4.0641 0.357201C4.41662 0.471976 4.73716 0.668157 4.99976 0.929859L7.33497 3.26394C7.67172 3.59732 7.89959 4.02488 7.98856 4.49032C8.07753 4.95575 8.02342 5.43722 7.83336 5.8713C7.62538 6.35832 7.33007 6.80319 6.96201 7.18394C4.29192 9.85402 13.029 18.5911 15.698 15.9199C16.0788 15.5506 16.5241 15.2541 17.0118 15.0452C17.4458 14.8548 17.9273 14.8006 18.3928 14.8896C18.8583 14.9785 19.2859 15.2066 19.6191 15.5436L21.9521 17.8822Z" fill="white"/>
</svg>
