<svg width="30" height="42" viewBox="0 0 30 42" fill="none" xmlns="http://www.w3.org/2000/svg">
<path d="M14.9981 -0.000244141C6.71372 -0.000244141 -0.00195312 6.71547 -0.00195312 14.9998C-0.00195312 23.284 6.71372 29.9998 14.9981 29.9998C23.2824 29.9998 29.9981 23.284 29.9981 14.9998C29.9981 6.71547 23.2824 -0.000244141 14.9981 -0.000244141ZM14.9981 3.99976L18.4981 10.4998L25.4981 11.4998L19.9981 16.4998L21.4981 23.9998L14.9981 20.4998L8.49805 23.9998L9.99805 16.4998L4.49805 11.4998L11.4981 10.4998L14.9981 3.99976ZM5.99805 29.406V41.9998L14.9981 36.4998L23.9981 41.9998V29.406C21.3843 31.0469 18.3016 31.9998 14.9981 31.9998C11.6945 31.9998 8.61182 31.0469 5.99805 29.406Z" fill="#FFF2F2"/>
</svg>
