<svg width="45" height="34" viewBox="0 0 45 34" fill="none" xmlns="http://www.w3.org/2000/svg">
<path fill-rule="evenodd" clip-rule="evenodd" d="M7.90981 25.8454V15.1453L20.4788 20.3191C21.1254 20.582 21.8122 20.5778 22.4578 20.3143L35.3447 15.0112V25.8454C35.3426 26.0161 35.3087 26.1899 35.2372 26.3569C35.2308 26.3733 32.77 32.2261 21.7513 33.0752C21.6792 33.082 21.6045 33.0831 21.5298 33.0773C11.5101 32.3141 8.55376 27.4158 8.08736 26.5037C7.97447 26.3097 7.90981 26.085 7.90981 25.8454ZM0.806749 8.39517L20.9701 0.0980201C21.3008 -0.0376599 21.6548 -0.0275899 21.9617 0.0980201L42.1245 8.39517C42.9365 8.72907 43.1872 9.7525 42.6434 10.4245V22.9193L44.801 26.3733C45.3458 27.2494 44.6998 28.3735 43.6912 28.3703L38.9768 28.3735C37.9031 28.3735 37.3036 27.1582 37.9094 26.3055L40.0241 22.9204V11.6743L21.9617 19.107C21.631 19.2427 21.2769 19.2326 20.9701 19.107L0.806749 10.8104C-0.280281 10.3641 -0.257491 8.83242 0.806749 8.39517Z" fill="white"/>
</svg>
