<svg width="25" height="25" viewBox="0 0 25 25" fill="none" xmlns="http://www.w3.org/2000/svg">
<path d="M23.6243 15.0795C23.3008 15.0795 22.9905 15.208 22.7617 15.4368C22.5329 15.6656 22.4043 15.9759 22.4043 16.2995V21.1795C22.4043 21.503 22.2758 21.8133 22.047 22.0421C21.8182 22.2709 21.5079 22.3995 21.1843 22.3995H4.10434C3.78077 22.3995 3.47046 22.2709 3.24167 22.0421C3.01287 21.8133 2.88434 21.503 2.88434 21.1795V16.2995C2.88434 15.9759 2.7558 15.6656 2.52701 15.4368C2.29821 15.208 1.9879 15.0795 1.66434 15.0795C1.34077 15.0795 1.03046 15.208 0.801666 15.4368C0.572871 15.6656 0.444336 15.9759 0.444336 16.2995V21.1795C0.444336 22.1501 0.829942 23.0811 1.51633 23.7675C2.20271 24.4538 3.13364 24.8395 4.10434 24.8395H21.1843C22.155 24.8395 23.086 24.4538 23.7724 23.7675C24.4587 23.0811 24.8443 22.1501 24.8443 21.1795V16.2995C24.8443 15.9759 24.7158 15.6656 24.487 15.4368C24.2582 15.208 23.9479 15.0795 23.6243 15.0795ZM11.7781 17.1657C11.8942 17.2767 12.031 17.3638 12.1807 17.4219C12.3268 17.4864 12.4847 17.5197 12.6443 17.5197C12.804 17.5197 12.9619 17.4864 13.1079 17.4219C13.2577 17.3638 13.3945 17.2767 13.5105 17.1657L18.3905 12.2857C18.6203 12.0559 18.7493 11.7443 18.7493 11.4195C18.7493 11.0946 18.6203 10.783 18.3905 10.5533C18.1608 10.3235 17.8492 10.1945 17.5243 10.1945C17.1994 10.1945 16.8879 10.3235 16.6581 10.5533L13.8643 13.3593V1.65945C13.8643 1.33589 13.7358 1.02558 13.507 0.796783C13.2782 0.567988 12.9679 0.439453 12.6443 0.439453C12.3208 0.439453 12.0105 0.567988 11.7817 0.796783C11.5529 1.02558 11.4243 1.33589 11.4243 1.65945V13.3593L8.63054 10.5533C8.51679 10.4395 8.38174 10.3493 8.23312 10.2877C8.0845 10.2261 7.92521 10.1945 7.76434 10.1945C7.60347 10.1945 7.44418 10.2261 7.29555 10.2877C7.14693 10.3493 7.01189 10.4395 6.89814 10.5533C6.78439 10.667 6.69415 10.802 6.63259 10.9507C6.57103 11.0993 6.53934 11.2586 6.53934 11.4195C6.53934 11.5803 6.57103 11.7396 6.63259 11.8882C6.69415 12.0369 6.78439 12.1719 6.89814 12.2857L11.7781 17.1657Z" fill="white"/>
</svg>
