<svg width="28" height="28" viewBox="0 0 28 28" fill="none" xmlns="http://www.w3.org/2000/svg">
<g clip-path="url(#clip0_74_47)">
<path d="M21.4625 17.7371C21.4588 17.79 21.4848 17.6869 21.4625 17.7371V17.7371ZM17.241 17.7371C17.2178 17.6832 17.2401 17.8048 17.241 17.7371V17.7371ZM21.4625 7.89663C21.469 7.25509 21.0271 6.8308 20.756 6.49007C20.4905 6.15583 19.8118 5.92559 19.3132 5.93394C18.8732 5.94044 18.2168 6.16511 17.9429 6.49007C17.5167 7.00162 17.2456 7.69051 17.2391 7.89663C17.2308 8.18351 17.2391 17.737 17.2391 17.737C17.4675 18.2616 19.0774 20.9605 19.0858 20.9846C19.1359 21.1053 19.2352 21.1824 19.3448 21.1824C19.4237 21.1852 19.4998 21.1471 19.5546 21.0803C19.5787 21.0496 19.5936 21.0218 19.6122 20.9855C19.6243 20.9595 21.2713 18.1408 21.4588 17.737C21.4709 17.3219 21.4839 8.54462 21.4625 7.89658V7.89663ZM19.5732 16.6322C19.5193 16.9154 19.4469 17.7045 19.355 18.2115C19.265 17.6721 19.1907 16.9358 19.1387 16.6322C19.148 15.8403 19.1359 9.47404 19.1387 9.27442C19.1369 9.09988 19.1387 9.20106 19.1387 8.74894C19.2269 8.74894 19.277 8.75079 19.355 8.74894C19.4507 8.74522 19.5194 8.74894 19.5732 8.74894C19.5741 8.97454 19.5741 8.97454 19.5732 9.27442C19.5704 9.53625 19.5741 12.9398 19.5732 16.6322Z" fill="white"/>
<path d="M24.8569 27.0062H2.99243C1.83189 27.0062 0.887695 26.0611 0.887695 24.9015V3.03613C0.887695 1.87559 1.83192 0.931396 2.99243 0.931396H24.8578C26.0183 0.931396 26.9635 1.87562 26.9635 3.03613V24.9015C26.9625 26.0611 26.0174 27.0062 24.8569 27.0062ZM3.22641 24.6675H24.6239V3.27008H3.22641V24.6675Z" fill="white"/>
<path d="M13.1727 7.65993H6.14448C5.49829 7.65993 4.97559 7.1363 4.97559 6.49104C4.97559 5.84485 5.49829 5.32214 6.14448 5.32214H13.1727C13.8179 5.32214 14.3406 5.84485 14.3406 6.49104C14.3406 7.1363 13.8179 7.65993 13.1727 7.65993Z" fill="white"/>
<path d="M13.1727 12.4748H6.14448C5.49829 12.4748 4.97559 11.9512 4.97559 11.305C4.97559 10.6597 5.49829 10.1361 6.14448 10.1361H13.1727C13.8179 10.1361 14.3406 10.6597 14.3406 11.305C14.3406 11.9512 13.8179 12.4748 13.1727 12.4748Z" fill="white"/>
<path d="M13.1727 16.9498H6.14448C5.49829 16.9498 4.97559 16.4271 4.97559 15.78C4.97559 15.1347 5.49829 14.6111 6.14448 14.6111H13.1727C13.8179 14.6111 14.3406 15.1338 14.3406 15.78C14.3406 16.4262 13.8179 16.9498 13.1727 16.9498Z" fill="white"/>
<path d="M13.1727 21.7646H6.14448C5.49829 21.7646 4.97559 21.2419 4.97559 20.5957C4.97559 19.9495 5.49829 19.4259 6.14448 19.4259H13.1727C13.8179 19.4259 14.3406 19.9486 14.3406 20.5957C14.3406 21.2419 13.8179 21.7646 13.1727 21.7646Z" fill="white"/>
</g>
<defs>
<clipPath id="clip0_74_47">
<rect width="27.8528" height="27.8528" fill="white" transform="translate(0 0.0736084)"/>
</clipPath>
</defs>
</svg>
